<svg version="1" xmlns="http://www.w3.org/2000/svg" width="3201.333" height="3201.333" viewBox="0 0 2401.000000 2401.000000"><path d="M1238.1 228.9c-1.2.8-1.1 2.4.3 10.7 2.1 12.6 4.2 33.2 3.4 34-.5.4-65.1-16.9-79.8-21.5-2.3-.7-2.5-1.3-2.5-6.7 0-3.2.3-8.3.7-11.2.6-4.6.5-5.2-1.1-5.2-3.2 0-12.8 25.4-17.6 46.5-5.2 22.9-5.8 50.8-1.6 68 4.8 19.6 15.6 43.7 30.9 69.2l9.1 15.2-10.2 15.3c-27.2 40.9-35.4 63.6-36 99.5-.4 24 .8 37.8 5.4 60.7 5.8 28.6 17.6 62 31.9 90.6l4.8 9.6-4.5 8.5c-29.3 54.8-65.5 113.5-99.6 161.4-15.2 21.3-31.8 46-37.6 55.9-16.4 27.9-25.9 52.6-29.6 77.1-1.8 11.9-2.1 39.2-.5 52 10.4 83.9 71.3 154.5 151.5 175.6 28.7 7.5 50.8 8.3 78.5 2.8 76.5-15.4 138.7-75.1 158.1-151.8 1.6-6.3 3.4-14.6 4-18.5.6-3.9 1.2-8.2 1.5-9.6 1.2-7 1.5-30.7.5-40.3-4.3-42.6-18.4-72.4-65.6-139.2-38.7-54.7-74.5-112.4-101.7-164l-7.4-14 3.9-8.5c9.6-20.9 19.4-48.9 25.7-73.5 6.8-27 9.1-45.1 8.9-70-.3-42.7-10.7-76.2-35.3-113.4-6.8-10.4-8.6-13.8-7.9-15 13.7-22.1 26.9-48.8 32.7-66.2 10-29.8 8.2-68.3-5-108.1-5-15-6.2-17.2-8.3-15.9zm-31.1 44l35.5 12.9-.3 9.4c-.3 13.2-.9 15.8-3.3 15.8-1.1 0-11.5-1.6-23.2-3.5s-28.9-4.6-38.4-6.1-17.7-3.1-18.4-3.4c-1.2-.8-2-24.7-1.2-36.7l.5-6.2 6.6 2.4c3.7 1.4 22.7 8.3 42.2 15.4zm-17.5 38.6c16.5 3.6 34.4 7.5 39.8 8.7 6.5 1.4 9.7 2.5 9.7 3.4 0 1.5-4.9 16.6-7.1 22.1l-1.3 3.2-10 .3c-5.6.2-18.7.5-29.2.6l-19.1.3-2.7-5.6c-3.9-8.2-6.6-16.8-8.7-27.8-1.9-9.7-2.2-11.7-1.6-11.7.1 0 13.7 2.9 30.2 6.5zm11.5 47c13.1.6 22.3 1.5 22.9 2 .5.6-6.4 12.2-15.2 25.9l-7.1 10.9-2-2.6c-2.3-2.9-16.7-25.6-21-33.1l-2.8-4.8 6.8.6c3.8.3 12.1.8 18.4 1.1zm7.7 113.8c7.6 11.6 10.8 17.4 10 17.8-1.4.8-50.1 17.9-50.9 17.9-.6 0 4.2-9.5 13.2-26.6 5.9-11.2 15.1-26.4 15.8-26.3.4 0 5.7 7.8 11.9 17.2zm24.6 38c6 10 11.7 21.4 11.7 23.4 0 .7-.5 1.3-1.1 1.3-.6 0-21.5 2.9-46.5 6.5s-45.9 6.5-46.4 6.5c-2.6 0 11.5-33.5 14.7-34.7 2-.8 57.8-12 60.5-12.2 1-.1 3.6 3.2 7.1 9.2zm17.4 42.8c1.3 6.2 1.6 26.9.6 28.6-.5.7-7.5 1.3-20.8 1.8-11 .3-22.2.8-25 1-5.5.4-44.3 1.9-51.5 2-4.3 0-4.4-.1-5.3-4-.8-4-.6-25.9.3-26.8.7-.8 14.7-2 42-3.7 9.1-.6 18.8-1.2 21.5-1.5 2.8-.2 10.2-.7 16.5-1.1 6.3-.3 11.6-.7 11.7-.8.2-.1 2.2-.3 4.6-.5l4.4-.2 1 5.2zm-57.7 41.4c4.1.2 15.2.7 24.5 1 16.1.5 30.7 1.4 31.1 1.8.4.4-5.3 17.2-7.5 22.3l-2.2 5.2-9.2.6c-5.1.3-14.4.8-20.7 1.2-6.3.3-13.3.7-15.5.9-2.2.2-9.7.7-16.8 1.1l-12.7.7-3.4-7.4c-3.5-7.6-7.8-19.8-9.1-25.8l-.7-3.3 17.3.6c9.6.4 20.8.9 24.9 1.1zm-8 40.9c7.4.4 15.8.9 18.5 1.1 2.8.2 10 .7 16 1.1 6.1.3 11.1.7 11.3.9.5.5-1.5 4-9 15.6l-6.8 10.6-10.5 1.8c-5.7 1-12.1 1.8-14.1 1.9l-3.6.1-10-16.5c-8.7-14.3-9.7-16.5-8.1-17.1 1-.4 2-.5 2.3-.4.3.1 6.6.6 14 .9zm87.8 286.3c39.9 25.3 64.4 61.2 72.9 106.8 2.3 12.7 2.3 38.8-.1 51.5-9.7 50.7-41.6 92.9-87.8 116.1-5.4 2.7-10.2 4.9-10.8 4.9-.6 0 1.5-2.2 4.7-4.9 8.6-7.2 22.3-21.7 29.3-31.2 42.4-57.2 49.5-132.6 18.6-196.4-8.6-17.6-19.4-33.2-32-46.3-3.3-3.4-5.6-6.2-5-6.2.6 0 5.2 2.6 10.2 5.7zM1645 716.6c-11.6 3.1-22.4 12.2-28.9 24.3-3.1 5.8-3.4 7.5-4.8 21.9-.8 8.7-1.5 23.8-1.5 33.7-.2 29.4 2 128.5 3.1 135.8.8 5.6.5 9.3-1.5 21.5-3.1 19-7.4 50.5-7.4 54.6 0 2.8.4 2.4 5.4-5.2 19.9-30.4 46.6-52.2 63.9-52.2 2.3 0 6.7-.9 9.7-2.1 12.7-4.9 27.2 1 31 12.7 2 6.1.9 15.5-2.6 21.1-2.9 4.6-3 5-1.6 8.3 2.3 5.4 1.9 13.6-.9 20.5-4.3 10.4-42.4 75.2-59.2 100.5-11 16.6-13.6 20.3-25.7 36-12.7 16.4-17.4 23.5-22.6 33.9-4.7 9.6-11.2 27.8-13.9 39.1-3.4 14.4-4.6 10.7-2-6.2 2.9-19.7 9-38.1 17-51.8 2.4-4.1 8.5-13.1 13.6-20 9.9-13.5 34.4-50.4 60.9-91.6 29-45.1 29.4-45.9 28.8-54.7l-.3-4.2-8 12.2c-8.4 12.8-11.1 15.3-16.9 15.3-10.5 0-36.6-14.6-36.6-20.5 0-1.5 11.9-23 16.3-29.5 1.7-2.5 5.1-6.6 7.5-9.3 2.5-2.6 3.9-4.7 3.2-4.7-3.5 0-16.1 8.1-23.8 15.4-14.6 13.8-23.8 26.8-43.7 61.6-19.5 34-29 46.8-52.5 70-18.4 18.3-28.7 26.7-41.3 33.5-22.3 12.2-68 50.7-94.9 79.9-77.2 83.8-104.4 166.3-81.2 246.2 9.9 34.2 31 76.8 53.4 108 41.1 56.9 96.7 103.3 165 137.5 21.9 11 27.5 13.2 31.1 12.4 4-.9 6.9-5 6.9-9.6 0-3.2-1-5.1-6.3-11.6-38.5-47.5-62.1-92.9-73.6-141.3-10.3-43.1-9.1-80.6 3.9-119.2 4.8-14.4 19.1-43.8 28.5-58.7 18.2-28.8 53.5-74.7 125.4-162.6 13.1-15.9 23.4-29.5 25.1-33 3.6-7.2 5-13.4 8.5-36.5 7.3-48.4 21.9-106.4 38.4-152.8 6.3-17.6 6.8-19.6 7.6-32.2 1-16.5 4.3-44.8 7.6-65 6.4-39.8 13.6-67.4 26.3-102 4.9-13.4 7.2-20.7 6.4-21.1-2.2-1.4-14.5-1.9-21.9-1-23.2 3-40.9 15.9-52.2 37.9-5.1 9.9-9.8 23.9-12.1 35.9-.8 4.5-3.8 15.5-6.5 24.5-10.5 34.5-20.1 70.3-20.1 74.9 0 1.4-.4 1.9-.9 1.3-.9-.9-3.3-50.2-5.2-104.7-.6-17.6-1-53.4-.8-79.7l.4-47.9-2.9-.5c-5-1-14.9-.5-20.6 1zM737 718.9l-4.5.6.5 14.5c1.4 40.1-.1 115.6-3.5 184.5-.8 15.9-1.5 30.6-1.6 32.5 0 2.3-1.1-.6-3-8.5-4-16.4-8.8-33.8-16.9-61-3.7-12.7-7.6-26.8-8.5-31.5-8-40.2-28.3-65.5-57.5-71.6-7.7-1.6-27.1-1.7-28.7-.1-.4.5.5 4.3 2.1 8.5 8.2 22.3 16.1 46.1 19.2 57.7 8.8 33.7 15.6 75.4 18.9 116.7 1.5 19.6 1.6 19.8 7.1 35.5 19.7 55.9 32.3 106.8 40.9 164.5 2.5 16.8 5.1 25.6 9.8 32.3 1.2 1.6 11.3 14.2 22.6 28 25.6 31.3 74.7 92.7 91.5 114.5 45.5 59.1 66.1 102.1 71.7 149.5 1.4 12.2.6 41-1.6 55-7.8 50.7-32.8 105-69.5 151.5-14.8 18.7-15 19-15 22.7 0 2.5.8 4.3 3 6.5 4.6 4.6 8.3 3.7 30.1-7 107.2-52.9 182.8-133.2 218.3-231.7 17.4-48.6 17.9-92.7 1.3-141-22.2-64.6-76.2-131.4-152.6-188.8-6.2-4.7-14.2-9.9-17.6-11.6-13.1-6.6-30.1-20.6-49.5-40.8-19.1-19.8-29.3-34.2-48.5-67.8-12.6-22.2-20.3-34-29.2-44.7-11.6-14-25.7-25.4-33.8-27.4-2.9-.7-2.8-.6 2.1 5.2 2.8 3.2 6.1 7.4 7.4 9.3 4.5 6.5 15 26.4 15 28.3 0 3-5.9 7.9-15.8 13-12 6.4-19.3 8.4-24.4 6.8-3.6-1-4.8-2.4-12.1-13.7-7-10.8-8.2-12.3-9-10.6-1.6 3.6 1.1 12.7 6.2 21 8.4 13.7 60 93.3 68.9 106.3 4.7 6.8 11.6 16.5 15.3 21.5 14.1 19.1 20.9 32.8 25.9 52.1 3.2 12.3 5.3 26.3 4.8 31.5-.2 2.7-.9 1.1-3.2-7.6-7.9-30.1-15.6-45.4-37-73-10.9-14.1-25.4-35.2-37.8-55-11.1-17.7-42.7-72.2-45.6-78.4-3.2-7-4.1-17.1-1.8-22.4 1.5-3.7 1.5-4-.8-7.5-8.6-13.8-4.7-29.1 8.9-34.7 5-2.1 14-2.2 18.9-.1 2.1.9 4.9 1.6 6.2 1.6 1.3 0 2.4.6 2.4 1.2 0 1 .2 1 .8.1 1.8-2.8 16.5 2.8 26.6 10 11.7 8.4 30.3 29.2 39.1 43.8 2.1 3.3 3.9 5.9 4.1 5.7.5-.5-3.1-28.2-6.7-51.3-2.3-15-2.9-21.5-2.4-26 .4-3.3 1.1-30.3 1.6-60 .6-29.7 1.2-60.8 1.5-69 .3-9.5-.1-22.7-1.1-36-1.7-20.8-1.7-21.1-5.3-28-6.2-12-17.4-21.4-28.7-24.3-5.7-1.5-14.3-2-19.5-1.3z"/><path d="M1589.8 774.5c-16.4 6-27.5 25-32.4 55.5-.9 5.2-1.8 19.2-2.1 31-.4 17.6-.1 25.2 1.6 42 4.1 39.7 5.1 81.9 2.6 107.5-3.3 34-4.5 67.5-2.5 70.5.9 1.3 1.5 1 3.6-1.5 5.6-6.6 16.6-22.7 24.2-35.1l7.9-13.1.7-10.4c.8-13 3.7-36.5 7.7-61.8 2.9-18.2 3-19.9 1.8-27.5-.9-5.7-1.4-26.3-1.6-70.1-.3-56.7.2-72.6 2.4-85.3l.5-3.2-5.3.1c-3 0-7.1.7-9.1 1.4zM797.3 777.6c2.2 7.4 4.2 40.3 3 49.4-.5 3.6-.4 18 .1 32 .9 25.8-.3 65.8-2.4 78-.8 4.5-.4 8.9 2 24 4.2 27 7 48.9 7.7 61.8l.6 11.2 7.9 13.3c8 13.3 22.5 34.2 25.8 37.2 1.8 1.6 1.9 1.5 2.7-1.7 1.3-4.6-.1-39.1-2.7-66.6-1.9-21.2-2-25.3-1.1-53.8.6-17 1.9-38.3 2.8-47.4 2.2-20.6 2.5-69.4.4-81-5.2-29.9-15.1-48-29.6-54.6-3.1-1.5-8.3-2.8-11.7-3.1-5.6-.6-6-.5-5.5 1.3zM1548.2 900.4c-20.9 19-34.2 69.1-38.2 144.1-1.1 20.8-1.2 73.8-.2 82.4l.7 5.3 8.5-7.5c12.3-10.8 31.5-32.2 31.4-35 0-1.2-.7-6.9-1.4-12.7-1.5-12.4-.8-41.3 1.6-61.5 3-26 4.2-76.4 2.5-107.5l-.6-11.5-4.3 3.9zM848.6 904.2c-.3 1.7-.6 22.5-.6 46.2 0 38.1.3 45.2 2.2 61.1 1.7 14.4 2.2 23.7 2.2 46 .1 18.5-.3 29.5-1.1 32.4-1.1 4.3-1.1 4.6 1.9 8 15.2 17.5 35.3 37.1 38 37.1 1.6 0 .4-94.7-1.6-113.7-4.9-49.4-13.1-82.5-25.6-103.3-4.2-7.2-10.2-14.5-13-16-1.5-.8-1.9-.4-2.4 2.2zM1028.4 1657.4c-21.7 4.2-31.6 17.1-30.1 39.6 1.6 22.5 11.5 41.6 41.9 80.8 22.7 29 32.4 45.6 35.4 60.4 1.7 8.4 1 13.5-2.6 18.1-5.9 7.5-22.3 5.3-33.7-4.7-8.8-7.7-18.7-23.9-26.4-43.4-3.6-9.2-5.1-11.1-7.3-9.2-1.4 1.1-1.6 6.1-1.6 38.7 0 31.4.2 37.4 1.4 37.9.8.3 6.3-1.5 12.2-4.1l10.7-4.7 7.6 2.7c13.7 4.8 18.3 5.8 28.6 5.8 20.6.1 35.2-7.9 42.3-23.2 2.2-4.7 2.7-7.3 3-16.6.5-13.3-1.2-21.3-6.4-31.7-5.4-10.8-13.4-22-37.7-53.1-17.6-22.5-30.4-42.9-33.7-53.6-2.1-6.7-2.6-16.4-1-20.5 2.3-6 13.7-7.3 23.4-2.6 13.6 6.5 31.2 29.6 40.5 53.2 1.9 4.8 2.7 5.8 4.7 5.8h2.4l-.2-38.3-.3-38.2-2.2-.3c-1.1-.2-6.4 1.8-11.7 4.4l-9.6 4.7-6.3-2.3c-18.2-6.5-30.3-8.1-43.3-5.6zM1128.5 1657c-.8 1.4-.7 1.4 9 7.2 3.9 2.3 8.2 5.3 9.8 6.7l2.7 2.5v92.1c0 80.9-.2 92.3-1.5 94.2-.9 1.2-5.8 4.7-11.1 7.8-5.2 3.1-9.3 6.2-9.1 6.8.6 1.8 77.7 1.7 87.2-.1 31.9-6 47.6-24.8 54.6-65.1 4-23.3 4.4-64.3.8-84.6-6.4-36.9-23.3-58.2-52-65.6-7.8-2.1-11.3-2.3-49-2.6-30.8-.4-40.9-.2-41.4.7zm81.1 16.7c4.7 2.5 10.5 8.6 13.2 14 8.3 16.2 12.3 52.8 10.3 93.4-1.7 33.8-4.9 50.9-11.8 64.2-5.9 11.2-13.6 15.7-27 15.7h-6.3v-190.2l8.8.4c6.2.3 9.9 1 12.8 2.5zM1331 1657.1c-13.7 2-23.7 8.5-28.7 18.7-2.6 5.3-2.8 6.5-2.8 18.2.1 11.4.4 13.3 3.4 22 5.7 16.7 15 32 35.7 58.5 29 37.2 37.4 52.3 38.1 68.5.4 7.3.1 9-1.7 11.8-2.8 4.5-8.1 6.6-14.7 5.9-17.3-1.8-32-17.7-44.8-48.2-5.7-13.8-6.6-15.1-8.9-14.2-1.4.6-1.6 5.1-1.6 38.7 0 31.7.2 38.2 1.4 38.6.8.3 6.2-1.6 12.1-4.1l10.6-4.7 10.5 3.7c13 4.5 24 5.9 33.9 4.6 16.9-2.4 28.2-10 34.4-23.1 2.4-5.1 2.6-6.6 2.6-19 0-14.4-.9-18.8-6.3-29.5-3.7-7.5-15.1-23.7-32.7-46.5-20.8-27-28.6-38.4-34.7-50.7-4.6-9.1-5.2-11.1-5.6-18.2-.6-10.2.1-12.7 4.1-15.1 15.9-9.8 44.4 14.9 59.3 51.5 2.8 6.8 3.7 8 5.9 8.3l2.5.3-.2-38.3-.3-38.3-2.3-.3c-1.4-.2-6.1 1.5-10.9 3.9-9.9 4.9-12.4 5.1-20.8 1.6-11.8-5-24.6-6.5-37.5-4.6zM230.6 1944.9c-.4.5 3.6 3.5 8.8 6.6 5.2 3.1 10.2 6.6 11.3 7.7 1.7 1.9 1.8 6 1.8 94.4 0 91.1 0 92.4-2 94.3-1.1 1.2-6 4.4-11 7.3-4.9 2.9-8.8 5.7-8.7 6.3.3 1.3 81.1 1.4 81.5.1.1-.5-3.8-3.3-8.8-6.2-4.9-3-10-6.5-11.2-7.9l-2.3-2.6v-86.2l9.3.5c11.3.6 18 3.3 23.6 9.3 2.2 2.4 4.4 6 5 8.1.7 2.4 1.1 16.9 1.1 38.3 0 32.9.1 34.5 2.1 37.7 5 8.1 13.7 10.4 39.6 10.4 10.6 0 19.3-.4 19.3-.9 0-.4-4.2-3.4-9.2-6.6-5.1-3.2-10.5-7-12-8.3l-2.8-2.6v-68.2l-2.5-5.1c-3.5-6.9-11-13.7-20-17.9l-7.4-3.6 7.1-3.5c18-9 27.8-26.1 27.8-48.3 0-29-13.5-44.1-46.5-52.1-6.6-1.5-93-2.5-93.9-1zm81.6 15.5c13.2 3.9 18.8 15.4 18.7 38.6 0 32.3-9.3 45-33.1 45H290v-42.3c0-23.3.3-42.7.8-43.1 1-1.1 15.9.1 21.4 1.8zM396.2 1945.2c.3.7 4.4 3.6 9.2 6.5 4.9 2.8 9.7 6 10.7 6.9 1.8 1.7 1.9 4.7 1.9 94.4 0 74.2-.3 93-1.3 94.4-.7 1-5.5 4.3-10.7 7.4-5.2 3.1-9.6 6.3-9.8 7-.3 1 13.1 1.2 66 1l66.3-.3.3-37.9c.1-21.9-.2-38.4-.7-38.9-2.7-2.7-5 1.1-18.1 29.4-11.1 24-14 29.5-16.5 31-2.6 1.7-5.1 1.9-20.2 1.9H456v-88h14.7l9.7 12.5c14.3 18.5 13.6 19.6 13.6-20.1 0-39.1.8-37.8-13.9-20.4l-9.7 11.5-7.2.3-7.2.3V1958h14.8c15.8 0 20.9.9 23.7 4 1 1.1 7.8 14.5 15.1 29.8 7.3 15.2 13.9 28.1 14.7 28.6.8.5 2.2.6 3.1.3 1.5-.6 1.6-4.1 1.4-38.4l-.3-37.8-66.3-.3c-52.9-.2-66.3 0-66 1zM579.8 1945.6c-20.3 4.9-29.5 19.3-26.8 42.3 2.4 21.1 12.8 40.4 41.1 76.7 26.5 34 36.9 53.2 36.9 68.3 0 9.6-4.3 14.3-13.5 14.9-19.2 1.2-34.6-14.4-49.5-50.3-3.7-8.9-5-11.1-6.8-11.3l-2.2-.3v38.5c0 44.9-1.4 41 12.9 34.6 4.9-2.2 9.7-4 10.8-4 1.1 0 6.6 1.6 12.4 3.6 28.3 9.9 56.1 2.3 65.8-17.9 3.2-6.6 4.4-17.1 3.2-27.4-2.1-18.8-6.9-27.3-39.2-69-26.6-34.2-37.3-51.7-39.9-65.1-2.3-11.7.1-18.3 7.2-20.3 17.8-4.8 43.7 21.1 58 57.9 1.4 3.6 2.1 4.3 4 4l2.3-.3v-76l-3.2-.3c-2.1-.2-5.7 1-11.2 3.7-4.4 2.3-9.2 4.1-10.6 4.1-1.3 0-5.7-1.3-9.7-2.9-4-1.6-9.7-3.4-12.6-4-7.1-1.5-22.4-1.3-29.4.5zM682 1944.9c0 .6 4.2 3.5 9.4 6.6 5.2 3.1 10.2 6.6 11.3 7.7 1.7 1.9 1.8 6 1.8 94.5v92.5l-3 2.5c-1.6 1.4-6.6 4.6-11 7.2-4.4 2.5-7.9 5-7.7 5.6.1.7 23 1 66 1h65.7V2124c0-37.8 0-38.5-2-38.5-2.1 0-5 5.1-14.4 25.5-14.6 31.5-15.9 33.8-19 35.4-2.4 1.3-6.5 1.6-20.1 1.6h-17v-88h14.9l9.7 12.5c6.2 8.1 10.3 12.5 11.5 12.5 1.8 0 1.9-1.4 1.9-32.5 0-31-.1-32.5-1.9-32.5-1.1 0-5.2 4.1-10.5 10.5-12 14.5-10.7 13.5-18.7 13.5H742l.2-42.8.3-42.7H759c13.5 0 17 .3 19.5 1.7 2.5 1.3 5.3 6.4 17 31 13 27 14.3 29.3 16.8 29.6l2.7.3-.2-38.3-.3-38.3-66.2-.3c-41.9-.1-66.3.1-66.3.7zM893.1 1947.7c-1.3 5.1-30.6 134.7-41.7 184.3-3.7 16.8-3.4 16.2-14 22.7-5.2 3.2-9.4 6.3-9.4 7 0 1 6.4 1.3 31 1.3 24.2 0 31-.3 31-1.3 0-.6-3.6-3.4-8-6.1-4.5-2.7-8.5-5.7-9-6.7-1-1.8 5.4-33.2 7.3-35.7.8-.9 5.8-1.2 21.6-1l20.6.3 3.7 15.5c2.1 8.5 3.7 16.8 3.6 18.5-.3 3.1-1.9 4.4-14.3 11.8-2.5 1.5-4.3 3.2-4 3.7.4.6 14.5 1 38.6 1 32.6 0 37.9-.2 37.9-1.5 0-.8-4.2-3.7-9.5-6.6-6.2-3.3-10-6-10.9-7.8-.8-1.4-11.8-47.1-24.7-101.6-12.8-54.5-23.7-99.6-24.2-100.3-.7-.8-4.5-1.2-12.8-1.2h-11.8l-1 3.7zm16.7 111.4c4.5 19 8.2 35.1 8.2 35.7 0 .9-4.7 1.2-17 1.2-9.3 0-17-.4-17-.8 0-.7 12.9-59 15.5-70.1.4-1.3 1-2 1.4-1.5.4.5 4.4 16.5 8.9 35.5zM995.6 1944.9c-.4.5 3.6 3.5 8.8 6.6 5.2 3.1 10.2 6.6 11.3 7.7 1.7 1.9 1.8 6 1.8 94.4 0 91.1 0 92.4-2 94.3-1.1 1.2-6 4.4-11 7.3-4.9 2.9-8.9 5.7-9 6.3 0 1.3 80.5 1.9 81.8.6.5-.5-3-3.2-8.7-6.6-5.4-3.2-10.6-6.9-11.6-8.3-1.9-2.4-2-4.3-2-45.3V2059h6.9c10.4 0 19.1 3.1 25.1 8.8 3.1 3 5.2 6.1 5.9 8.7.7 2.5 1.1 16.6 1.1 38.4 0 32.9.1 34.5 2.1 37.7 5 8.1 13.7 10.4 39.6 10.4 10.6 0 19.3-.4 19.3-.9 0-.4-4.2-3.4-9.2-6.6-5.1-3.2-10.5-7-12-8.3l-2.8-2.6v-68.2l-2.5-5.1c-3.5-6.9-11-13.7-20-17.9l-7.4-3.6 7.1-3.5c8.9-4.5 18.3-13.7 22.1-21.6 7.3-15.1 7.5-38.2.6-52-6.8-13.5-19-21.4-41.4-26.8-6.6-1.5-93-2.5-93.9-1zm81.6 15.5c13.2 3.9 18.8 15.4 18.7 38.6 0 32.3-9.3 45-33.1 45h-7.8v-42.3c0-23.3.3-42.7.8-43.1 1-1.1 15.9.1 21.4 1.8zM1212.3 1945.4c-26.9 6.5-41.9 30.2-46.2 72.5-1.4 13-1.4 46-.1 61.1 4.9 56.9 25.2 84 63 84 26.9 0 42.2-11 49-35.2 2.2-7.8 4.8-33.2 3.7-36.1-.4-1.1-1.7-1.7-3.6-1.7-2.5 0-3.2.5-3.6 2.7-2.2 10.6-4.1 16.9-7.1 24.4-8.8 22.3-17.6 30.9-31.2 30.9-10.7 0-16.4-3.5-21.2-13.1-6.8-13.4-9-30.3-9.7-76.4-1-61.3 2.3-85.3 12.8-95.2 6.3-5.8 14.8-6.4 23.9-1.7 14 7.2 23.7 23.6 32.9 55.3.9 3 3.3 4.6 5.5 3.8 1.5-.6 1.6-4.1 1.4-38.4l-.3-37.8-2.9-.3c-1.9-.3-4.7.8-8.9 3.4-7.3 4.5-12.4 4.8-20.2 1.3-2.7-1.2-7.2-2.8-10-3.5-6.2-1.7-20.3-1.7-27.2 0zM1299.7 1944.6c-.9.9 2.4 3.3 11.9 8.7 5 2.9 8.5 5.7 9.2 7.2.9 1.9 1.2 26.5 1.2 93.5v90.9l-2.2 2.6c-1.3 1.4-6.3 4.9-11.1 7.8-4.8 2.8-8.8 5.6-8.8 6.2.1.6 14.3 1 40.6 1 26.2 0 40.6-.4 40.7-1 0-.6-3.9-3.4-8.8-6.3-14.4-8.5-12.9-2.4-12.9-52.5v-43.2l24.8-.3 24.7-.2v43c0 26.4-.4 43.8-1 45-.5 1-4.7 3.9-9.2 6.5-8.7 5-11.8 7.3-11.8 8.7 0 .4 18.5.8 41.1.8 32.4 0 41-.3 40.7-1.3-.2-.6-4.6-3.8-9.8-6.9-5.2-3.1-10-6.4-10.7-7.4-1-1.4-1.3-20.1-1.3-94 0-86.3.1-92.3 1.8-94.3.9-1.2 5.7-4.5 10.6-7.4 4.9-2.8 9.1-5.8 9.4-6.5.3-.9-8.3-1.2-40.8-1.2s-41.1.3-40.8 1.2c.2.7 4.6 3.9 9.8 7 5.2 3.1 10 6.4 10.7 7.4 1 1.4 1.3 10.9 1.3 43.1v41.3l-24.7-.2-24.8-.3v-41.1c0-38.6.1-41.3 1.8-43.2 1.1-1.1 6.1-4.6 11.3-7.7 5.2-3.1 9.2-6 8.9-6.6-.7-1-80.8-1.3-81.8-.3zM1539.5 1944.9c-.3.6 3.6 3.5 8.8 6.5 5.1 3 10.1 6.4 11.2 7.6 2 2.2 2 4.1 2 94.6 0 91.9 0 92.4-2.1 94.4-1.1 1.1-5.9 4.4-10.8 7.3-4.8 2.9-8.8 5.6-8.9 6.2-.1.7 14.7 1.1 42.6 1.3 35.3.2 42.7 0 42.7-1.1 0-.8-5.4-4-12.1-7.1-9-4.4-12.3-6.4-13-8.3-.5-1.4-.9-20.8-.9-44.4V2060h14.9l9.8 12.2c5.4 6.8 10.6 12.4 11.6 12.6 1.6.3 1.7-1.7 1.7-32.3v-32.6l-2.2.3c-1.4.2-4.9 3.6-9.1 8.8-13.1 16.2-11.6 15-19.6 15h-7.1l.2-42.8.3-42.7h17c14.6 0 17.4.2 19.6 1.8 1.9 1.2 6.5 9.9 16.4 30.5 7.5 15.8 14.2 29 14.9 29.4.6.4 1.9.8 2.9.8 1.6 0 1.7-2.3 1.5-38.3l-.3-38.2-65.7-.3c-41.1-.1-65.9.1-66.3.7zM1686 1945.4c0 .8 4.5 3.9 10 7 6.9 4 10.1 6.4 10.5 7.9.3 1.2.6 41.6.8 89.7l.2 87.5 2.2 4.1c4.5 8.5 14.3 14.9 28.6 18.7 7 1.8 10.9 2.1 26.7 2.1 15.7 0 19.7-.4 26.1-2.2 14.9-4 25.1-10.9 29.4-19.7 1.9-3.9 2-6.8 2.3-92.2l.3-88.2 2.8-2.4c1.6-1.3 6.3-4.3 10.5-6.6 12.9-7.1 12.7-7.1-28.3-7.1-19.9 0-36.2.4-36.5.9-.8 1.2 1.4 2.9 10.8 8.1 4.6 2.6 8.6 5.6 9.3 7 1 2 1.2 20.3 1.1 87.5l-.3 85-2.4 4.8c-3.6 7.4-8.4 10.1-18.9 10.6-14.7.6-22.6-3.6-25.1-13.2-.8-3.3-1.1-28.8-1.1-89 0-79 .1-84.6 1.8-86.6.9-1.2 5.5-4.3 10.2-6.9 14.9-8.3 15.3-8.2-30.9-8.2-33.6 0-40.1.2-40.1 1.4zM1852 1944.9c0 .5 3.5 3.4 7.8 6.4 4.2 3 8.6 6.5 9.7 7.7 2 2.2 2 3.6 2 94.7v92.5l-3.9 3.4c-2.2 1.9-6.5 5.1-9.7 7.1-3.3 2.1-5.9 4.4-5.9 5 0 1 7.7 1.3 35 1.3 27.4 0 35-.3 35-1.3-.1-.6-3.3-3.2-7.3-5.7-3.9-2.4-8.6-5.7-10.4-7.3l-3.3-2.9v-74.6c0-41 .2-74.3.5-74.1.2.3 8.1 22.1 17.6 48.4 9.4 26.4 18.9 52.9 21.1 59 2.2 6 7.2 20.3 11.3 31.6 8 22.6 8.8 24.3 12.2 25.8 3.4 1.5 27.6 1.4 29.1-.1.9-.9 1.2-24.6 1.2-100.6 0-64.7.4-100 1-101.2.6-1 5-4.7 10-8.1 4.9-3.4 8.7-6.6 8.4-7-.7-1.2-69.1-1.1-69.8 0-.4.5 3.4 3.5 8.4 6.6 14.4 9.1 13 1.7 13 66.8 0 32.2-.4 55.7-.9 55.1-.5-.5-11-29.4-23.4-64.3-12.4-34.9-23.2-63.8-23.9-64.2-1.8-1.2-64.8-1.1-64.8 0zM2025.7 1944.6c-.9.9 2.4 3.3 11.9 8.7 5 2.9 8.5 5.7 9.2 7.2.9 1.9 1.2 26.5 1.2 93.5v90.9l-2.2 2.6c-1.3 1.4-6.3 4.9-11.1 7.8-4.8 2.8-8.7 5.6-8.5 6.2.2.6 15.2 1 42.3 1 37.1 0 42.9-.2 49.8-1.8 32-7.5 47.5-32.7 51.8-84.3 1.5-18 .7-51.7-1.6-64.4-6.9-38.4-24.7-59.9-54.7-66.1-8.2-1.7-13.8-1.9-48.4-1.9-21.5 0-39.4.3-39.7.6zm80 15.9c6 2.4 13.4 10.9 16.6 18.9 6.6 16.4 9.2 41.5 8.4 80.1-.8 36.7-3.8 56.5-10.6 71-6 12.9-13 17.5-26.8 17.5h-8.3v-94.3c0-51.9.3-94.7.8-95.1 1.2-1.3 15.4.1 19.9 1.9z"/></svg>